<svg width="212" height="98" viewBox="0 0 212 98" fill="none" xmlns="http://www.w3.org/2000/svg">
<path d="M119.217 39.5595L109.725 56.5456C107.091 61.258 101.193 63.0297 96.3987 60.5485L57.7902 40.5669C52.5443 37.8519 50.7822 31.2057 53.994 26.2484L65.8053 8.01796C68.7118 3.53179 74.6325 2.12468 79.2466 4.8235L115.536 26.0494C120.237 28.7992 121.874 34.8053 119.217 39.5595Z" fill="url(#paint0_linear_126_156)"/>
<path d="M119.104 90.268C117.952 90.268 116.98 89.884 116.188 89.116C115.396 88.348 115 87.376 115 86.2C115 84.976 115.396 84.004 116.188 83.284C116.98 82.54 117.952 82.168 119.104 82.168C120.256 82.168 121.228 82.54 122.02 83.284C122.812 84.004 123.208 84.976 123.208 86.2C123.208 87.376 122.812 88.348 122.02 89.116C121.228 89.884 120.256 90.268 119.104 90.268Z" fill="#ee4040"/>
<path d="M124.979 89.944V73.852C124.979 71.9632 126.51 70.432 128.399 70.432C130.288 70.432 131.819 71.9632 131.819 73.852V83.104C131.819 86.8816 128.757 89.944 124.979 89.944ZM128.399 68.272C127.151 68.272 126.143 67.924 125.375 67.228C124.607 66.532 124.223 65.668 124.223 64.636C124.223 63.604 124.607 62.74 125.375 62.044C126.143 61.348 127.151 61 128.399 61C129.647 61 130.655 61.336 131.423 62.008C132.191 62.656 132.575 63.496 132.575 64.528C132.575 65.608 132.191 66.508 131.423 67.228C130.679 67.924 129.671 68.272 128.399 68.272Z" fill="#ee4040"/>
<path d="M143.536 90.268C141.04 90.268 139.096 89.656 137.704 88.432C136.312 87.184 135.616 85.312 135.616 82.816V69.496C135.616 67.6072 137.148 66.076 139.036 66.076C140.925 66.076 142.456 67.6072 142.456 69.496V82.744C142.456 83.44 142.648 83.992 143.032 84.4C143.416 84.784 143.908 84.976 144.508 84.976C145.618 84.976 146.964 85.4036 147.333 86.4493L148.288 89.152C147.712 89.536 147.004 89.812 146.164 89.98C145.324 90.172 144.448 90.268 143.536 90.268ZM135.328 76.264C133.917 76.264 132.772 75.1196 132.772 73.708C132.772 72.2964 133.917 71.152 135.328 71.152H146.92C146.92 73.9753 144.632 76.264 141.808 76.264H135.328Z" fill="#ee4040"/>
<path fill-rule="evenodd" clip-rule="evenodd" d="M76.2345 18.3357L73.862 16.9659C73.1024 16.5273 72.1913 16.4231 71.3291 16.6761C70.4669 16.9291 69.7242 17.5187 69.2644 18.315L67.8283 20.8025C69.2813 21.0499 70.797 20.9643 72.2655 20.5334C73.734 20.1025 75.0869 19.3462 76.2345 18.3357ZM64.2387 27.0198C67.3068 28.0119 70.6532 28.0605 73.8641 27.1182C77.0749 26.176 79.9542 24.3004 82.1646 21.7594L119.685 43.4219C120.445 43.8604 120.991 44.5974 121.203 45.4706C121.415 46.3438 121.275 47.2817 120.816 48.0781L110.571 65.8223C113.878 67.509 117.926 66.3108 119.782 63.0961L126.543 51.3851C127.923 48.996 128.34 46.1821 127.704 43.5625C127.068 40.9429 125.431 38.7322 123.152 37.4165L83.0571 14.2675L77.3292 10.9605C75.0505 9.6449 72.3171 9.33223 69.7305 10.0913C67.1439 10.8503 64.9159 12.6189 63.5365 15.008L60.0693 21.0134L51.3018 36.1992C54.1799 38.2867 58.2321 37.4236 60.0098 34.3445L64.2387 27.0198Z" fill="black"/>
<path d="M0.846843 61.0002V44.9081C0.846843 43.0193 2.37803 41.4882 4.26684 41.4882C6.15566 41.4882 7.68684 43.0193 7.68684 44.9082V54.1602C7.68684 57.9378 4.62447 61.0002 0.846843 61.0002ZM4.26684 39.3282C3.01884 39.3282 2.01084 38.9802 1.24284 38.2842C0.474843 37.5882 0.0908432 36.7242 0.0908432 35.6922C0.0908432 34.6602 0.474843 33.7962 1.24284 33.1002C2.01084 32.4042 3.01884 32.0562 4.26684 32.0562C5.51484 32.0562 6.52284 32.3922 7.29084 33.0642C8.05884 33.7122 8.44284 34.5522 8.44284 35.5842C8.44284 36.6642 8.05884 37.5642 7.29084 38.2842C6.54684 38.9802 5.53884 39.3282 4.26684 39.3282Z" fill="black"/>
<path d="M20.484 61.3242C18.348 61.3242 16.452 60.8922 14.796 60.0282C13.14 59.1642 11.832 57.9762 10.872 56.4642C9.936 54.9282 9.468 53.1762 9.468 51.2082C9.468 49.2402 9.936 47.5002 10.872 45.9882C11.832 44.4762 13.14 43.3002 14.796 42.4602C16.452 41.5962 18.348 41.1642 20.484 41.1642C22.62 41.1642 24.516 41.5962 26.172 42.4602C27.852 43.3002 29.16 44.4762 30.096 45.9882C31.032 47.5002 31.5 49.2402 31.5 51.2082C31.5 53.1762 31.032 54.9282 30.096 56.4642C29.16 57.9762 27.852 59.1642 26.172 60.0282C24.516 60.8922 22.62 61.3242 20.484 61.3242ZM20.484 55.8882C21.276 55.8882 21.972 55.7082 22.572 55.3482C23.196 54.9882 23.688 54.4602 24.048 53.7642C24.408 53.0442 24.588 52.1922 24.588 51.2082C24.588 50.2242 24.408 49.3962 24.048 48.7242C23.688 48.0282 23.196 47.5002 22.572 47.1402C21.972 46.7802 21.276 46.6002 20.484 46.6002C19.716 46.6002 19.02 46.7802 18.396 47.1402C17.796 47.5002 17.304 48.0282 16.92 48.7242C16.56 49.3962 16.38 50.2242 16.38 51.2082C16.38 52.1922 16.56 53.0442 16.92 53.7642C17.304 54.4602 17.796 54.9882 18.396 55.3482C19.02 55.7082 19.716 55.8882 20.484 55.8882Z" fill="black"/>
<path d="M42.259 61.16C40.675 61.16 39.247 60.848 37.975 60.224C36.727 59.6 35.743 58.628 35.023 57.308C34.327 55.964 33.979 54.272 33.979 52.232V44.744C33.979 42.8552 35.5102 41.324 37.399 41.324C39.2879 41.324 40.819 42.8552 40.819 44.744V51.116C40.819 52.628 41.095 53.708 41.647 54.356C42.223 55.004 43.027 55.328 44.059 55.328C44.731 55.328 45.343 55.172 45.895 54.86C46.447 54.548 46.891 54.056 47.227 53.384C47.563 52.688 47.731 51.8 47.731 50.72V44.744C47.731 42.8552 49.2622 41.324 51.151 41.324C53.0399 41.324 54.571 42.8552 54.571 44.744V60.836H49.4997C48.7018 60.836 48.055 60.1892 48.055 59.3913V56.9602C48.055 56.4141 48.7407 56.1704 49.0854 56.5939C49.2258 56.7664 49.2568 57.005 49.1544 57.2025C48.4915 58.4803 47.573 59.4515 46.399 60.116C45.127 60.812 43.747 61.16 42.259 61.16Z" fill="black"/>
<path d="M64.6288 61.16C62.9728 61.16 61.3528 60.968 59.7688 60.584C59.1329 60.4275 58.5468 60.255 58.0105 60.0665C56.8099 59.6446 56.3717 58.2708 56.8827 57.1053C57.4962 55.706 59.2152 55.1678 60.6723 55.6274C60.8592 55.6863 61.05 55.7425 61.2448 55.796C62.4688 56.108 63.6688 56.264 64.8448 56.264C65.9968 56.264 66.7888 56.144 67.2208 55.904C67.6768 55.664 67.9048 55.34 67.9048 54.932C67.9048 54.548 67.6888 54.272 67.2568 54.104C66.8488 53.912 66.2968 53.768 65.6008 53.672C64.9288 53.576 64.1848 53.468 63.3688 53.348C62.5528 53.228 61.7248 53.072 60.8848 52.88C60.0688 52.664 59.3128 52.352 58.6168 51.944C57.9448 51.512 57.4048 50.936 56.9968 50.216C56.5888 49.496 56.3848 48.584 56.3848 47.48C56.3848 46.232 56.7448 45.128 57.4648 44.168C58.2088 43.184 59.2888 42.416 60.7048 41.864C62.1208 41.288 63.8488 41 65.8888 41C67.2568 41 68.6368 41.144 70.0288 41.432C71.4448 41.696 72.6328 42.104 73.5928 42.656L72.7947 44.4624C72.1247 45.9786 70.2863 46.5091 68.6608 46.184C67.7008 45.968 66.7888 45.86 65.9248 45.86C64.7728 45.86 63.9568 45.992 63.4768 46.256C63.0208 46.52 62.7928 46.844 62.7928 47.228C62.7928 47.612 62.9968 47.912 63.4048 48.128C63.8128 48.32 64.3528 48.476 65.0248 48.596C65.7208 48.692 66.4768 48.8 67.2928 48.92C68.1088 49.016 68.9248 49.172 69.7408 49.388C70.5808 49.604 71.3368 49.928 72.0088 50.36C72.7048 50.768 73.2568 51.332 73.6648 52.052C74.0728 52.748 74.2768 53.648 74.2768 54.752C74.2768 55.952 73.9048 57.032 73.1608 57.992C72.4408 58.952 71.3608 59.72 69.9208 60.296C68.5048 60.872 66.7408 61.16 64.6288 61.16Z" fill="black"/>
<path d="M85.5763 61.16C83.4403 61.16 81.5443 60.728 79.8883 59.864C78.2323 59 76.9243 57.812 75.9643 56.3C75.0283 54.764 74.5603 53.012 74.5603 51.044C74.5603 49.076 75.0283 47.336 75.9643 45.824C76.9243 44.312 78.2323 43.136 79.8883 42.296C81.5443 41.432 83.4403 41 85.5763 41C87.7123 41 89.6083 41.432 91.2643 42.296C92.9443 43.136 94.2523 44.312 95.1883 45.824C96.1243 47.336 96.5923 49.076 96.5923 51.044C96.5923 53.012 96.1243 54.764 95.1883 56.3C94.2523 57.812 92.9443 59 91.2643 59.864C89.6083 60.728 87.7123 61.16 85.5763 61.16ZM85.5763 55.724C86.3683 55.724 87.0643 55.544 87.6643 55.184C88.2883 54.824 88.7803 54.296 89.1403 53.6C89.5003 52.88 89.6803 52.028 89.6803 51.044C89.6803 50.06 89.5003 49.232 89.1403 48.56C88.7803 47.864 88.2883 47.336 87.6643 46.976C87.0643 46.616 86.3683 46.436 85.5763 46.436C84.8083 46.436 84.1123 46.616 83.4883 46.976C82.8883 47.336 82.3963 47.864 82.0123 48.56C81.6523 49.232 81.4723 50.06 81.4723 51.044C81.4723 52.028 81.6523 52.88 82.0123 53.6C82.3963 54.296 82.8883 54.824 83.4883 55.184C84.1123 55.544 84.8083 55.724 85.5763 55.724Z" fill="black"/>
<path d="M28.2562 90.2682V74.1761C28.2562 72.2873 29.7874 70.7562 31.6762 70.7562C33.565 70.7562 35.0962 72.2873 35.0962 74.1762V83.4282C35.0962 87.2058 32.0338 90.2682 28.2562 90.2682ZM31.6762 68.5962C30.4282 68.5962 29.4202 68.2482 28.6522 67.5522C27.8842 66.8562 27.5002 65.9922 27.5002 64.9602C27.5002 63.9282 27.8842 63.0642 28.6522 62.3682C29.4202 61.6722 30.4282 61.3242 31.6762 61.3242C32.9242 61.3242 33.9322 61.6602 34.7002 62.3322C35.4682 62.9802 35.8522 63.8202 35.8522 64.8522C35.8522 65.9322 35.4682 66.8322 34.7002 67.5522C33.9562 68.2482 32.9482 68.5962 31.6762 68.5962Z" fill="black"/>
<path d="M38.1014 90.2682V66.9762C38.1014 65.0873 39.6326 63.5562 41.5214 63.5562C43.4102 63.5562 44.9414 65.0873 44.9414 66.9762V83.4281C44.9414 87.2058 41.879 90.2682 38.1014 90.2682Z" fill="black"/>
<path d="M60.2225 90.5922C58.5665 90.5922 57.1505 90.2322 55.9745 89.5122C54.7985 88.7682 53.8985 87.6642 53.2745 86.2002C52.6745 84.7122 52.3745 82.8162 52.3745 80.5122C52.3745 78.1842 52.6625 76.2882 53.2385 74.8242C53.8145 73.3362 54.6785 72.2322 55.8305 71.5122C57.0065 70.7922 58.4705 70.4322 60.2225 70.4322C61.9985 70.4322 63.6065 70.8522 65.0465 71.6922C66.5105 72.5082 67.6625 73.6722 68.5025 75.1842C69.3665 76.6722 69.7985 78.4482 69.7985 80.5122C69.7985 82.5762 69.3665 84.3642 68.5025 85.8762C67.6625 87.3882 66.5105 88.5522 65.0465 89.3682C63.6065 90.1842 61.9985 90.5922 60.2225 90.5922ZM47.9465 97.2522V77.2722C47.9465 73.6735 50.8638 70.7562 54.4625 70.7562V74.0682L54.4265 80.5122L54.7865 86.9922V90.4122C54.7865 94.1898 51.7242 97.2522 47.9465 97.2522ZM58.7825 85.1562C59.5505 85.1562 60.2345 84.9762 60.8345 84.6162C61.4585 84.2562 61.9505 83.7282 62.3105 83.0322C62.6945 82.3362 62.8865 81.4962 62.8865 80.5122C62.8865 79.5282 62.6945 78.6882 62.3105 77.9922C61.9505 77.2962 61.4585 76.7682 60.8345 76.4082C60.2345 76.0482 59.5505 75.8682 58.7825 75.8682C58.0145 75.8682 57.3185 76.0482 56.6945 76.4082C56.0945 76.7682 55.6025 77.2962 55.2185 77.9922C54.8585 78.6882 54.6785 79.5282 54.6785 80.5122C54.6785 81.4962 54.8585 82.3362 55.2185 83.0322C55.6025 83.7282 56.0945 84.2562 56.6945 84.6162C57.3185 84.9762 58.0145 85.1562 58.7825 85.1562Z" fill="black"/>
<path d="M81.3298 90.5922C79.1938 90.5922 77.2978 90.1602 75.6418 89.2962C73.9858 88.4322 72.6778 87.2442 71.7178 85.7322C70.7818 84.1962 70.3138 82.4442 70.3138 80.4762C70.3138 78.5082 70.7818 76.7682 71.7178 75.2562C72.6778 73.7442 73.9858 72.5682 75.6418 71.7282C77.2978 70.8642 79.1938 70.4322 81.3298 70.4322C83.4658 70.4322 85.3618 70.8642 87.0178 71.7282C88.6978 72.5682 90.0058 73.7442 90.9418 75.2562C91.8778 76.7682 92.3458 78.5082 92.3458 80.4762C92.3458 82.4442 91.8778 84.1962 90.9418 85.7322C90.0058 87.2442 88.6978 88.4322 87.0178 89.2962C85.3618 90.1602 83.4658 90.5922 81.3298 90.5922ZM81.3298 85.1562C82.1218 85.1562 82.8178 84.9762 83.4178 84.6162C84.0418 84.2562 84.5338 83.7282 84.8938 83.0322C85.2538 82.3122 85.4338 81.4602 85.4338 80.4762C85.4338 79.4922 85.2538 78.6642 84.8938 77.9922C84.5338 77.2962 84.0418 76.7682 83.4178 76.4082C82.8178 76.0482 82.1218 75.8682 81.3298 75.8682C80.5618 75.8682 79.8658 76.0482 79.2418 76.4082C78.6418 76.7682 78.1498 77.2962 77.7658 77.9922C77.4058 78.6642 77.2258 79.4922 77.2258 80.4762C77.2258 81.4602 77.4058 82.3122 77.7658 83.0322C78.1498 83.7282 78.6418 84.2562 79.2418 84.6162C79.8658 84.9762 80.5618 85.1562 81.3298 85.1562Z" fill="black"/>
<path d="M101.166 90.5922C99.5104 90.5922 97.8904 90.4002 96.3064 90.0162C94.7464 89.6322 93.4863 89.1522 92.5263 88.5762L93.1806 87.0841C93.9211 85.3952 96.0041 84.74 97.7824 85.2282C99.0064 85.5402 100.206 85.6962 101.382 85.6962C102.534 85.6962 103.326 85.5762 103.758 85.3362C104.214 85.0962 104.442 84.7722 104.442 84.3642C104.442 83.9802 104.226 83.7042 103.794 83.5362C103.386 83.3442 102.834 83.2002 102.138 83.1042C101.466 83.0082 100.722 82.9002 99.9063 82.7802C99.0903 82.6602 98.2624 82.5042 97.4224 82.3122C96.6064 82.0962 95.8503 81.7842 95.1544 81.3762C94.4824 80.9442 93.9424 80.3682 93.5344 79.6482C93.1264 78.9282 92.9224 78.0162 92.9224 76.9122C92.9224 75.6642 93.2824 74.5602 94.0024 73.6002C94.7464 72.6162 95.8263 71.8482 97.2423 71.2962C98.6583 70.7202 100.386 70.4322 102.426 70.4322C103.794 70.4322 105.174 70.5762 106.566 70.8642C107.982 71.1282 109.17 71.5362 110.13 72.0882L109.332 73.8945C108.662 75.4107 106.824 75.9412 105.198 75.6162C104.238 75.4002 103.326 75.2922 102.462 75.2922C101.31 75.2922 100.494 75.4242 100.014 75.6882C99.5583 75.9522 99.3303 76.2762 99.3303 76.6602C99.3303 77.0442 99.5343 77.3442 99.9423 77.5602C100.35 77.7522 100.89 77.9082 101.562 78.0282C102.258 78.1242 103.014 78.2322 103.83 78.3522C104.646 78.4482 105.462 78.6042 106.278 78.8202C107.118 79.0362 107.874 79.3602 108.546 79.7922C109.242 80.2002 109.794 80.7642 110.202 81.4842C110.61 82.1802 110.814 83.0802 110.814 84.1842C110.814 85.3842 110.442 86.4642 109.698 87.4242C108.978 88.3842 107.898 89.1522 106.458 89.7282C105.042 90.3042 103.278 90.5922 101.166 90.5922Z" fill="black"/>
<rect x="133" y="29" width="78" height="25" rx="7" stroke="#EE4040" stroke-width="2"/>
<path d="M142.88 49V35H149.44C151.12 35 152.4 35.3333 153.28 36C154.16 36.6533 154.6 37.5333 154.6 38.64C154.6 39.3867 154.427 40.0267 154.08 40.56C153.733 41.08 153.267 41.4867 152.68 41.78C152.107 42.06 151.48 42.2 150.8 42.2L151.16 41.48C151.947 41.48 152.653 41.6267 153.28 41.92C153.907 42.2 154.4 42.6133 154.76 43.16C155.133 43.7067 155.32 44.3867 155.32 45.2C155.32 46.4 154.86 47.3333 153.94 48C153.02 48.6667 151.653 49 149.84 49H142.88ZM145.48 46.96H149.68C150.653 46.96 151.4 46.8 151.92 46.48C152.44 46.16 152.7 45.6467 152.7 44.94C152.7 44.2467 152.44 43.74 151.92 43.42C151.4 43.0867 150.653 42.92 149.68 42.92H145.28V40.9H149.16C150.067 40.9 150.76 40.74 151.24 40.42C151.733 40.1 151.98 39.62 151.98 38.98C151.98 38.3267 151.733 37.84 151.24 37.52C150.76 37.2 150.067 37.04 149.16 37.04H145.48V46.96ZM162.495 40.82H169.455V42.96H162.495V40.82ZM162.695 46.82H170.595V49H160.095V35H170.315V37.18H162.695V46.82ZM178.333 49V37.2H173.693V35H185.573V37.2H180.933V49H178.333ZM186.841 49L193.141 35H195.701L202.021 49H199.301L193.881 36.38H194.921L189.521 49H186.841ZM189.741 45.76L190.441 43.72H198.001L198.701 45.76H189.741Z" fill="#EE4040"/>
<defs>
<linearGradient id="paint0_linear_126_156" x1="86" y1="0" x2="86" y2="65" gradientUnits="userSpaceOnUse">
<stop stop-color="#ee4040" stop-opacity="0.51"/>
<stop offset="1" stop-color="#ee4040" stop-opacity="0"/>
</linearGradient>
</defs>
</svg>
