<svg xmlns="http://www.w3.org/2000/svg" fill="none" viewBox="0 0 58 76">
  <path fill="#000" d="M29 0A28.62 28.62 0 0 0 8.5 8.76 30.35 30.35 0 0 0 0 29.86C0 55.4 26.36 74.7 27.48 75.53a2.68 2.68 0 0 0 3.04 0C31.64 74.7 58 55.4 58 29.86c0-7.92-3.07-15.5-8.5-21.1A28.62 28.62 0 0 0 29 0Z"/>
  <path fill="#fff" fill-rule="evenodd" d="M15.91 19.5c-.43 0-.85.18-1.16.51-.3.33-.48.78-.48 1.24v17.5c0 .46.18.91.48 1.24.3.33.73.51 1.16.51h26.18c.43 0 .85-.18 1.16-.51.3-.33.48-.78.48-1.24v-17.5c0-.46-.17-.91-.48-1.24a1.58 1.58 0 0 0-1.16-.51H15.91Zm-3.47-1.96A4.75 4.75 0 0 1 15.9 16h26.18c1.3 0 2.55.55 3.47 1.54A5.44 5.44 0 0 1 47 21.25v17.5c0 1.4-.52 2.73-1.44 3.71A4.75 4.75 0 0 1 42.1 44H15.91c-1.3 0-2.55-.55-3.47-1.54A5.44 5.44 0 0 1 11 38.75v-17.5c0-1.4.52-2.73 1.44-3.71Z" clip-rule="evenodd"/>
  <path fill="#fff" fill-rule="evenodd" d="M29 26.5c-1.8 0-3.27 1.57-3.27 3.5s1.46 3.5 3.27 3.5 3.27-1.57 3.27-3.5-1.46-3.5-3.27-3.5ZM22.45 30c0-3.87 2.94-7 6.55-7s6.54 3.13 6.54 7-2.92 7-6.54 7-6.55-3.13-6.55-7Zm-3.27-14c.9 0 1.64.78 1.64 1.75 0 2.32-.86 4.55-2.4 6.19a7.92 7.92 0 0 1-5.78 2.56c-.9 0-1.64-.78-1.64-1.75S11.73 23 12.64 23c1.3 0 2.55-.55 3.47-1.54a5.44 5.44 0 0 0 1.44-3.71c0-.97.73-1.75 1.63-1.75Zm26.18 21c-1.3 0-2.55.55-3.47 1.54a5.44 5.44 0 0 0-1.44 3.71c0 .97-.73 1.75-1.63 1.75-.9 0-1.64-.78-1.64-1.75 0-2.32.86-4.55 2.4-6.19a7.92 7.92 0 0 1 5.78-2.56c.9 0 1.64.78 1.64 1.75S46.27 37 45.36 37Z" clip-rule="evenodd"/>
</svg>