<svg width="58" height="80" viewBox="0 0 58 80" fill="none" xmlns="http://www.w3.org/2000/svg">
<ellipse cx="29.5" cy="76.5" rx="17.5" ry="3.5" fill="black" fill-opacity="0.2"/>
<path d="M9.22088 9.45193C14.4724 4.04498 21.5862 1.00898 29 1C36.4138 1.00898 43.5276 4.04498 48.7791 9.45193C54.0319 14.8602 56.9916 22.1988 57 29.8594C56.9996 42.2946 50.5759 53.2849 43.9082 61.3306C37.3001 69.3042 30.5531 74.2641 29.9402 74.7102C29.6583 74.9004 29.3316 75 29 75C28.6684 75 28.3417 74.9004 28.0598 74.7102C27.4469 74.2641 20.6999 69.3042 14.0918 61.3306C7.42401 53.2848 1.00019 42.2943 1 29.8589C1.00858 22.1985 3.96824 14.86 9.22088 9.45193Z" fill="#4438CA"/>
<path d="M9.22088 9.45193C14.4724 4.04498 21.5862 1.00898 29 1C36.4138 1.00898 43.5276 4.04498 48.7791 9.45193C54.0319 14.8602 56.9916 22.1988 57 29.8594C56.9996 42.2946 50.5759 53.2849 43.9082 61.3306C37.3001 69.3042 30.5531 74.2641 29.9402 74.7102C29.6583 74.9004 29.3316 75 29 75C28.6684 75 28.3417 74.9004 28.0598 74.7102C27.4469 74.2641 20.6999 69.3042 14.0918 61.3306C7.42401 53.2848 1.00019 42.2943 1 29.8589C1.00858 22.1985 3.96824 14.86 9.22088 9.45193Z" stroke="black" stroke-width="2" style="mix-blend-mode:overlay"/>
<path fill-rule="evenodd" clip-rule="evenodd" d="M15.9091 19.5C15.4751 19.5 15.0589 19.6844 14.752 20.0126C14.4451 20.3408 14.2727 20.7859 14.2727 21.25V38.75C14.2727 39.2141 14.4451 39.6592 14.752 39.9874C15.0589 40.3156 15.4751 40.5 15.9091 40.5H42.0909C42.5249 40.5 42.9411 40.3156 43.248 39.9874C43.5549 39.6592 43.7273 39.2141 43.7273 38.75V21.25C43.7273 20.7859 43.5549 20.3408 43.248 20.0126C42.9411 19.6844 42.5249 19.5 42.0909 19.5H15.9091ZM12.4378 17.5377C13.3585 16.5531 14.6071 16 15.9091 16H42.0909C43.3929 16 44.6415 16.5531 45.5622 17.5377C46.4828 18.5223 47 19.8576 47 21.25V38.75C47 40.1424 46.4828 41.4777 45.5622 42.4623C44.6415 43.4469 43.3929 44 42.0909 44H15.9091C14.6071 44 13.3585 43.4469 12.4378 42.4623C11.5172 41.4777 11 40.1424 11 38.75V21.25C11 19.8576 11.5172 18.5223 12.4378 17.5377Z" fill="white"/>
<path fill-rule="evenodd" clip-rule="evenodd" d="M29 26.5C27.1925 26.5 25.7273 28.067 25.7273 30C25.7273 31.933 27.1925 33.5 29 33.5C30.8075 33.5 32.2727 31.933 32.2727 30C32.2727 28.067 30.8075 26.5 29 26.5ZM22.4545 30C22.4545 26.134 25.385 23 29 23C32.615 23 35.5455 26.134 35.5455 30C35.5455 33.866 32.615 37 29 37C25.385 37 22.4545 33.866 22.4545 30Z" fill="white"/>
<path fill-rule="evenodd" clip-rule="evenodd" d="M19.1818 16C20.0856 16 20.8182 16.7835 20.8182 17.75C20.8182 20.0706 19.9562 22.2962 18.4218 23.9372C16.8874 25.5781 14.8063 26.5 12.6364 26.5C11.7326 26.5 11 25.7165 11 24.75C11 23.7835 11.7326 23 12.6364 23C13.9383 23 15.187 22.4469 16.1076 21.4623C17.0282 20.4777 17.5455 19.1424 17.5455 17.75C17.5455 16.7835 18.2781 16 19.1818 16ZM45.3636 37C44.0617 37 42.813 37.5531 41.8924 38.5377C40.9718 39.5223 40.4545 40.8576 40.4545 42.25C40.4545 43.2165 39.7219 44 38.8182 44C37.9144 44 37.1818 43.2165 37.1818 42.25C37.1818 39.9294 38.0438 37.7038 39.5782 36.0628C41.1126 34.4219 43.1937 33.5 45.3636 33.5C46.2674 33.5 47 34.2835 47 35.25C47 36.2165 46.2674 37 45.3636 37Z" fill="white"/>
</svg>
