<svg xmlns="http://www.w3.org/2000/svg" width="58" height="76" fill="none">
    <path fill="url(#a)" d="M29 0C21.311.009 13.94 3.158 8.504 8.755 3.067 14.353.009 21.942 0 29.858c0 25.55 26.364 44.856 27.484 45.67.45.308.976.472 1.516.472s1.067-.164 1.516-.472C31.636 74.714 58 55.408 58 29.858c-.009-7.916-3.067-15.505-8.504-21.103C44.06 3.158 36.69.01 29 0Z" />
    <path fill="#fff" fill-rule="evenodd" d="M15.91 19.5c-.435 0-.851.184-1.158.513-.307.328-.48.773-.48 1.237v17.5c0 .464.173.91.48 1.237.307.329.723.513 1.157.513h26.182c.434 0 .85-.184 1.157-.513.307-.328.48-.773.48-1.237v-17.5c0-.464-.173-.91-.48-1.237a1.584 1.584 0 0 0-1.157-.513H15.909Zm-3.472-1.962c.92-.985 2.17-1.538 3.471-1.538h26.182c1.302 0 2.55.553 3.471 1.538.92.984 1.438 2.32 1.438 3.712v17.5c0 1.392-.517 2.728-1.438 3.712-.92.985-2.17 1.538-3.471 1.538H15.909c-1.302 0-2.55-.553-3.471-1.538-.92-.984-1.438-2.32-1.438-3.712v-17.5c0-1.392.517-2.728 1.438-3.712Z" clip-rule="evenodd" />
    <path fill="#fff" fill-rule="evenodd" d="M29 26.5c-1.808 0-3.273 1.567-3.273 3.5s1.465 3.5 3.273 3.5 3.273-1.567 3.273-3.5-1.466-3.5-3.273-3.5ZM22.454 30c0-3.866 2.931-7 6.546-7s6.545 3.134 6.545 7-2.93 7-6.545 7c-3.615 0-6.546-3.134-6.546-7ZM19.182 16c.904 0 1.636.784 1.636 1.75 0 2.32-.862 4.546-2.396 6.187-1.535 1.641-3.616 2.563-5.786 2.563-.903 0-1.636-.784-1.636-1.75S11.733 23 12.636 23c1.302 0 2.551-.553 3.472-1.538.92-.984 1.438-2.32 1.438-3.712 0-.966.732-1.75 1.636-1.75Zm26.182 21c-1.302 0-2.551.553-3.472 1.538-.92.984-1.438 2.32-1.438 3.712 0 .967-.732 1.75-1.636 1.75-.904 0-1.636-.783-1.636-1.75 0-2.32.862-4.546 2.396-6.187 1.535-1.641 3.616-2.563 5.786-2.563.903 0 1.636.783 1.636 1.75S46.267 37 45.364 37Z" clip-rule="evenodd" />
    <defs>
        <linearGradient id="a" x1="58" x2="0" y1="0" y2="76" gradientUnits="userSpaceOnUse">
            <stop stop-color="#E52D27" />
            <stop offset="1" stop-color="#B31217" />
        </linearGradient>
    </defs>
</svg>
  